<svg xmlns="http://www.w3.org/2000/svg" width="17" height="17" viewBox="0 0 17 17">
  <path fill="#FFE9B6" fill-rule="evenodd" d="M475.485281,443.485281 L472.485281,443.485281 L472.485281,440.485281 L475.485281,440.485281 L475.485281,443.485281 L475.485281,443.485281 Z M484.485281,440.485281 L481.485281,440.485281 L481.485281,443.485281 L484.485281,443.485281 L484.485281,440.485281 L484.485281,440.485281 Z M479.985281,444.985281 L476.985281,444.985281 L476.985281,447.985281 L479.985281,447.985281 L479.985281,444.985281 L479.985281,444.985281 Z M481.485281,449.485281 L481.485281,452.485281 L484.485281,452.485281 L484.485281,449.485281 L481.485281,449.485281 Z M475.485281,449.485281 L472.485281,449.485281 L472.485281,452.485281 L475.485281,452.485281 L475.485281,449.485281 L475.485281,449.485281 Z" transform="rotate(45 772.198 -339.855)"/>
</svg>
