<svg xmlns="http://www.w3.org/2000/svg" width="145" height="145" viewBox="0 0 145 145" xmlns:xlink="http://www.w3.org/1999/xlink">
  <defs>
    <circle id="a" cx="72.5" cy="72.5" r="72.5"/>
    <mask id="b" width="145" height="145" x="0" y="0" fill="white">
      <use xlink:href="#a"/>
    </mask>
  </defs>
  <g fill="none" fill-rule="evenodd">
    <use stroke="#FFD471" stroke-width="6" mask="url(#b)" xlink:href="#a"/>
    <path fill="#FFD471" d="M126.065567,40.9191685 C115.200177,22.9849994 95.499712,11 73,11 C48.8371227,11 27.9026246,24.8223343 17.6722086,44.9912999 C18.1338304,44.9703693 18.5349258,44.9077747 18.72384,44.7742547 C19.2387251,44.4134837 20.2196699,45.079849 20.2196699,45.079849 C20.628027,45.5509736 26.3849748,46.4762452 27.7742767,46.009365 C29.1635787,45.5424849 29.8826423,45.2368905 30.2466128,45.9032559 C30.6061446,46.57811 32.3461011,45.079849 33.4823992,44.8251871 C34.6142586,44.5662808 35.7416793,46.5229333 35.5907648,47.8132203 C35.4398502,49.1035074 35.0226157,48.6833153 34.9249651,49.4685229 C34.8184371,50.236753 35.692854,50.236753 35.692854,50.6993888 C35.692854,51.1577803 34.9249651,51.0092275 34.516608,51.3699986 C34.0949348,51.7307696 33.6377524,51.7307696 32.9675141,51.4209309 C32.3017144,51.1068479 32.0930972,51.5270401 31.1654163,52.2443378 C30.2466128,52.96588 30.548442,53.4242714 30.3442634,54.7188029 C30.1400849,56.0006012 30.8058845,55.6950069 31.6314761,56.2595075 C32.452629,56.8324968 33.1228673,57.3969974 34.2502881,57.3969974 C35.3865862,57.3969974 35.0803183,58.4283782 35.0803183,59.0904992 C35.0803183,59.7653533 35.3865862,59.6634886 36.0035605,59.7101766 C36.6160962,59.7653533 36.0035605,57.9063213 36.6160962,57.600727 C37.2375092,57.2908883 36.8247135,56.3656166 36.3630924,55.487033 C35.8925939,54.6084494 36.6160962,53.4157827 36.5672709,52.7451729 C36.5184456,52.0788076 37.2375092,51.8156569 37.9565729,52.0236308 C38.6711979,52.2316047 39.0884323,52.3377139 39.5988787,52.8003497 C40.1137638,53.2587412 40.0649385,53.2120531 40.4732956,54.1925016 C40.8860914,55.17295 41.6539803,54.1415692 42.0135122,53.3690947 C42.373044,52.5966202 42.8923677,53.5728242 43.3539888,54.7145585 C43.8156099,55.8393153 43.9221378,56.1576427 44.898644,57.3375763 C45.8751502,58.5175099 46.5409499,61.1490165 47.0558349,62.0233557 C47.5662813,62.897695 47.1579242,63.1056689 46.5409499,62.9486274 C45.9284142,62.7915859 44.0819298,63.6659251 43.669134,63.9290758 C43.2474609,64.1922265 42.1244788,64.6506179 41.4009765,65.1684305 C40.6819128,65.6862431 40.2735557,66.0979465 39.4923508,66.4035408 C38.7244618,66.7133795 38.6223725,67.3797449 38.0053982,68.5214792 C37.3973012,69.6504804 36.0523859,70.7370379 35.8482073,71.5562004 C35.6440287,72.3711186 35.9547352,73.3558114 35.3865862,73.5128529 C34.8139985,73.6698944 34.4589053,72.375363 33.9972842,71.9169715 C33.5312245,71.4500913 31.9865693,71.1487414 30.1400849,71.6580652 C28.2847231,72.1801222 29.5231105,74.9601815 29.780553,75.6265469 C30.0335569,76.3056453 31.7823907,74.9644259 32.2972758,74.4466133 C32.8121608,73.9288007 33.220518,74.7012752 33.2782206,75.4270617 C33.3270459,76.1486038 32.9675141,76.9677663 33.6865777,77.1205635 C34.4056414,77.2733606 34.6630839,77.4261578 35.1735303,78.5127153 C35.692854,79.5907842 37.0333307,79.1833251 38.0053982,78.5127153 C38.9907817,77.8421056 43.0921076,79.1366371 43.7135206,79.4422314 C44.330495,79.75207 45.5111797,79.9557996 46.1237154,80.7325185 C46.7495671,81.5007486 49.2707285,83.6696193 49.4216431,83.7672397 C49.5769963,83.8691045 53.3809317,84.4420938 54.4107018,85.2188127 C55.4360333,85.9955316 53.9490808,89.0387416 53.536285,90.5794462 C53.1190505,92.1201508 51.8362765,93.1005992 51.2725661,93.5123027 C50.7088557,93.9240061 46.4832472,98.8729362 45.8218862,99.5944783 C45.1516479,100.31602 42.994457,101.962834 42.4751333,102.582512 C41.9646868,103.197945 41.8581589,103.664825 42.0667761,104.488232 C42.2753934,105.311639 42.2753934,105.723342 41.8581589,106.444884 C41.4453631,107.162182 41.3965378,108.14263 41.7560696,108.919349 C42.1200401,109.687579 42.7325758,109.747 41.9646868,109.946486 C41.1967979,110.158704 39.4390868,109.640891 38.4137553,107.994077 C37.3884238,106.343019 38.6711979,102.272673 38.5646699,101.041807 C38.4625806,99.8024522 39.4390868,94.2890216 39.6432654,93.0029788 C39.8474439,91.7169361 38.9819044,90.7916645 38.1074875,90.2186751 C37.2286319,89.6541745 36.1500365,87.1287771 35.6307127,86.2544378 C35.1202663,85.3758542 35.5330621,84.4505825 35.8881553,83.5210665 C36.2521257,82.5915505 36.407479,81.7681436 36.0435085,81.1484663 C35.6839767,80.5330333 33.9351429,79.5992729 33.2160793,79.2936786 C32.5014543,78.9795955 31.9288666,78.6230688 31.263067,78.0033915 C30.601706,77.3794698 29.7272891,77.277605 27.9740166,76.9168339 C26.2251828,76.5560629 25.1421487,74.4933013 24.7382303,73.8226916 C24.3209958,73.1478375 24.3209958,74.0773535 24.1656426,75.0068695 C24.0191666,75.9406299 22.0661543,72.0188363 20.1575286,69.8542099 C18.2666576,67.6895836 18.1113043,63.9333202 18.2089549,62.7958302 C18.3110442,61.6710734 16.713125,59.145676 14.8666406,58.2670923 C14.0343494,57.8729894 13.514082,57.3426388 13.1420262,56.7844846 C11.7452027,61.9532171 11,67.3895828 11,73 C11,107.241654 38.7583455,135 73,135 C107.241654,135 135,107.241654 135,73 C135,66.6508743 134.045641,60.5246512 132.272549,54.7569582 C132.130325,54.9773063 132.106179,55.2432693 132.07841,55.6505961 C132.020781,56.4266087 131.510981,57.0054026 130.584476,57.8843119 C129.657971,58.7675086 129.121574,60.0494299 128.660538,61.0869716 C128.203935,62.1288007 128.203935,60.0451426 128.146305,59.2133943 C128.093109,58.381646 128.97085,54.6516407 125.854424,54.9174571 C124.879156,54.9946297 123.593575,55.9592862 122.822226,57.0011153 C122.055311,58.0343696 123.026146,57.7814152 123.593575,58.6131635 C124.161004,59.4406245 123.491615,60.3752695 123.132539,61.4728343 C122.773463,62.5661117 119.750131,65.3185983 119.337858,65.7344725 C118.921153,66.1460593 119.129505,67.7066592 119.129505,68.3369015 C119.129505,68.9671438 118.052277,68.9671438 117.125772,69.2758339 C116.2037,69.5888113 116.921852,67.5608889 116.717933,66.934934 C116.50958,66.3132664 115.529878,67.2479114 114.873789,68.2897405 C114.191101,69.3315696 115.631838,70.424847 115.529878,72.4527694 C115.427918,74.4849792 111.575608,75.1580951 111.012612,75.2138308 C110.44075,75.2695665 109.824558,76.1527632 110.74663,77.6104664 C111.668702,79.0681696 109.975281,79.3339861 108.99558,80.0028146 C108.024744,80.6802179 108.024744,79.7970212 107.608039,79.2225147 C107.209065,78.6480081 106.845556,79.9427915 106.38452,80.5687465 C105.923484,81.1947014 106.180601,79.1667789 106.025444,78.2278466 C105.870288,77.2889142 103.662635,75.7326016 103.148402,75.1066467 C102.643036,74.4806918 102.58984,75.4667852 101.720964,76.1956368 C100.843222,76.9287758 99.3049582,79.5783657 98.9458821,80.4144014 C98.591239,81.2504371 98.1656674,81.2504371 97.8110243,80.8302756 C97.4475152,80.4186888 96.0156438,76.1484758 95.1910987,75.5225209 C94.3754197,74.896566 92.681999,73.4903111 91.1924982,73.3874144 C89.6985643,73.2802303 89.3971177,72.6585628 88.4174162,72.294137 C87.4377148,71.9339985 87.2869915,71.7239178 87.2869915,72.294137 C87.2869915,72.8643562 88.155867,73.4431501 88.9848451,73.3874144 C89.8093902,73.3316787 90.5763059,74.4764045 90.5275424,75.4624978 C90.478779,76.4528785 88.164733,77.1774428 86.5200759,77.8033977 C84.8754187,78.4379273 83.4479803,75.4624978 83.0312747,74.4764045 C82.6278683,73.4903111 81.8033231,73.4431501 81.8033231,73.9061853 C81.8033231,74.3735078 83.1421007,76.3499818 83.7050966,77.3789488 C84.2769585,78.4207779 86.2806918,78.5708356 87.45988,78.5708356 C88.6390681,78.5708356 88.2312286,78.883813 87.9209159,80.1314355 C87.6150363,81.3790579 84.7468605,84.5088325 84.1262352,85.177661 C83.5100429,85.863639 83.8646859,88.8262065 83.7671591,90.0781163 C83.6696322,91.3257387 82.5436405,91.3257387 81.6171355,92.2132228 C80.6950636,93.0964194 80.5842376,94.807077 79.8616524,96.320516 C79.1479332,97.8296675 77.3569858,98.2412543 75.6546991,98.5027834 C73.9612785,98.7600252 74.4267475,97.1008159 74.1607652,95.7974577 C73.908082,94.5026743 72.3609516,86.5367549 71.6959959,85.3405808 C71.0310402,84.1486941 70.8182543,83.887165 71.2349599,82.8410485 C71.6427994,81.8035068 69.4351464,81.4948167 65.7867559,82.0178749 C62.1427984,82.5409332 61.0168067,77.3275005 61.0168067,75.4067621 C61.0168067,73.4817364 64.0445719,70.1032948 64.5056078,69.5802366 C64.9666438,69.0614657 65.0154072,68.9542817 66.145832,68.6455916 C67.2806898,68.3326141 70.8803169,67.5523142 72.4629115,68.1782691 C74.0543723,68.804224 73.4337469,69.6874206 74.7769575,70.3090882 C76.0980029,70.9393305 77.383584,69.7903173 78.5672052,70.4162723 C79.7463934,71.0422272 80.5709385,70.720675 81.2890907,69.893214 C82.0116759,69.0571784 81.4486801,68.4355108 81.1826978,68.2254301 C80.9344476,68.0153493 79.0903037,67.8181306 78.4696784,67.5523142 C77.8579191,67.2907851 77.6539993,66.6648301 77.4456465,67.4922911 C77.2461598,68.3326141 76.2132619,67.8181306 76.0625386,67.5523142 C75.9162483,67.2907851 75.4419132,66.6090944 75.0828371,66.7677268 C74.723761,66.9220719 74.2139616,67.337946 73.5977693,67.7066592 C72.98601,68.071085 73.4958094,66.9735202 73.6465327,66.5104851 C73.8061221,66.0388752 71.3369198,64.7398044 70.312888,64.6883561 C69.2888561,64.6369077 68.8233871,65.6701621 68.4111145,66.6090944 C68.003275,67.5523142 66.4162473,67.9596136 65.5828361,68.3797751 C64.7671571,68.7999366 64.0977683,67.5994751 63.8938486,66.9735202 C63.6899288,66.3518527 64.0977683,65.8287945 64.1997282,64.9455978 C64.3016881,64.0624012 65.8443854,64.2167462 66.7664574,64.2681946 C67.6885293,64.3239303 66.7132609,62.6046979 66.0483052,61.824398 C65.3833494,61.044098 66.5625376,61.2584661 67.533373,60.996937 C68.5086414,60.7311206 69.9493788,59.020463 70.4104148,58.6560372 C70.8803169,58.2916114 71.128567,57.9271855 71.5364065,57.7728405 C71.9531121,57.6142081 73.2874566,58.3430597 74.5154082,58.394508 C75.7477929,58.4502438 76.0004761,56.9968279 76.3595522,56.0536082 C76.7230613,55.1189632 76.572338,54.6473533 75.8541858,54.4415599 C75.1360336,54.2314791 75.0429398,55.1146758 74.4178814,56.3665856 C73.797256,57.6142081 72.5693044,56.6838504 72.3653847,56.418034 C72.1614649,56.1565049 72.0107416,55.4233659 71.8511522,54.75025 C71.6915629,54.0771341 71.0310402,54.2314791 69.741026,53.035305 C68.459878,51.8434183 71.0310402,50.1284733 72.4629115,48.4606893 C73.903649,46.7929054 77.6008029,43.1014863 78.4696784,42.7413479 C79.3385539,42.3769221 79.5469067,43.2601187 80.4157822,44.1433154 C81.2890907,45.026512 81.439814,44.7178219 82.2155957,45.652467 C82.9825113,46.587112 84.214896,46.7971927 84.214896,46.7971927 C84.6271685,46.694296 84.8310883,46.3298702 85.5004771,46.9000894 C86.1609998,47.474596 89.6586669,45.9097087 90.1197029,45.7039153 C90.5807389,45.4938345 90.944248,45.0779604 91.8175566,44.9236153 C92.6864321,44.7606956 94.6857323,43.5688088 94.8940851,43.0457506 C95.0935719,42.5269798 96.6451352,42.2140023 96.9465818,42.5269798 C97.2480285,42.8399572 97.77556,42.3769221 98.0814396,41.5408864 C98.3828862,40.7048507 99.052275,41.7981281 99.7216638,42.2654506 C100.38662,42.7370605 99.8191906,40.3404249 99.8191906,39.560125 C99.8191906,38.7755376 101.463848,38.8827217 102.026844,38.6726409 C102.58984,38.4625602 103.059742,37.4293058 104.07934,36.5418218 C105.107805,35.6543378 109.14187,35.1055554 109.571875,35.0283829 C112.909953,34.4538763 114.390587,38.0423987 116.141638,38.7755376 C117.888255,39.5001019 122.077476,40.4047354 123.074909,40.4390343 C123.890324,40.46695 125.00233,40.6702392 126.065567,40.9191685 Z M59.5994367,39.7291971 C59.899265,39.1798136 60.6261214,37.8042254 61.0168067,37.0504202 L44.3445378,37.0504202 C44.5444233,37.8808836 45.2667369,40.9642453 45.1304513,42.2120699 C44.9714515,43.6600574 45.448451,43.1447442 45.8663934,43.7154216 C46.2888787,44.2860991 46.1843931,45.167668 45.9209077,45.8320387 C45.6528794,46.504927 45.4984224,48.0082788 46.3479358,49.7671578 C47.1838207,51.521778 48.1832482,53.7448647 49.023676,53.8513344 C49.8731894,53.9492865 49.6596753,55.0906414 50.2411604,54.6732803 C50.8181027,54.2559192 50.9180455,53.3360212 51.3995878,51.9859858 C51.8720445,50.6487267 51.8720445,49.6606881 53.0849861,48.9877998 C54.2979278,48.3149115 57.6596387,46.1471889 58.3955808,45.3678309 C59.1360658,44.5884729 59.9764935,44.2818403 59.713008,42.9403224 C59.4404369,41.5945458 59.1814943,40.5085551 59.5994367,39.7291971 Z M123.187304,63.1319381 C122.870964,63.7832119 122.717312,63.8856135 122.24732,65.2291217 C121.76829,66.5644378 121.926461,66.2162726 121.451949,67.0600613 C120.981957,67.9079461 120.204663,68.0021555 119.41833,68.5551239 C118.622959,69.1039961 118.415078,70.1935486 118.415078,70.1935486 C117.737205,71.0373373 121.189839,68.9974985 122.391933,68.3544168 C123.598547,67.7072391 123.286726,66.9617558 123.390666,65.9172601 C123.494607,64.8686683 123.819986,64.7212101 124.33065,64.2747393 C124.850353,63.8282686 124.434591,62.9312311 124.186037,62.2881494 C123.914888,61.6450677 123.494607,62.4929525 123.187304,63.1319381 Z M112.732343,88.0350286 C113.087119,87.7532894 112.828702,87.1534575 113.384956,87.2579737 C113.94559,87.367034 114.449284,87.7078476 115.119417,87.3215922 C115.77203,86.9307927 116.332663,87.0943832 116.231924,86.4354769 C116.135566,85.7765707 116.231924,84.8949996 116.083006,84.3451537 C115.929708,83.7907637 115.018678,83.622629 114.357305,84.2360934 C113.695932,84.8495578 112.789282,85.7856591 112.789282,85.4493897 C112.789282,85.1222087 113.187858,84.2360934 112.98638,83.6862475 C112.789282,83.1364016 113.087119,82.6410859 112.07535,83.0773273 C111.059201,83.522657 110.502948,83.4090525 110.148172,84.0179727 C109.797775,84.6314371 109.38606,85.6720546 108.781627,85.0131483 C108.177193,84.3542421 106.394553,82.9773553 106.394553,82.9773553 C106.250015,82.8092206 104.222097,81.0960644 104.931649,82.2593747 C105.636821,83.4181408 106.70553,85.4039479 107.213604,86.1173843 C107.712918,86.8353649 108.273552,87.66695 108.886745,87.2806946 C109.495559,86.889895 109.596298,86.7853789 110.410969,87.2806946 C111.20374,87.7578336 112.377567,88.3122237 112.732343,88.0350286 Z M125.309922,85.4611251 C124.316308,85.0568226 124.732552,84.7025369 123.53753,84.5066378 C122.342508,84.3107386 121.366798,84.5066378 121.044545,84.3065705 C120.731243,84.1023352 119.182638,83.5979991 119.388522,84.3065705 C119.598882,85.01931 120.995312,85.2152092 121.357846,85.4152764 C121.720381,85.6195117 120.838661,86.0779991 121.505546,86.4281167 C122.176906,86.7782344 122.651334,87.4409571 123.528579,87.2367218 C124.410299,87.0283184 124.7236,87.4909739 125.439718,87.5910075 C126.169263,87.686873 126.894333,87.4909739 126.594458,87.1783688 C126.281157,86.8824361 126.079749,86.4697974 126.128982,86.1196798 C126.18269,85.7653941 126.290108,85.8695957 125.309922,85.4611251 Z M124.558273,90.3900818 C124.209379,89.345829 123.360835,87.4249196 123.167005,88.3574416 C122.964561,89.294261 121.620674,89.9689428 121.112409,89.9173748 C120.655832,89.8658067 120.914272,89.3973971 120.914272,88.9719607 C120.914272,88.5551191 120.651525,88.1425748 119.514389,88.4562804 C118.360025,88.7656886 118.123122,89.8615094 117.812994,89.7626707 C117.520096,89.6595346 116.714625,89.4489651 116.223589,90.0248082 C115.723939,90.6006513 115.267362,91.6964721 114.677258,91.9070416 C114.074231,92.1176111 112.07563,92.3711539 112.07563,93.2134319 C112.07563,94.0471152 112.579588,95.2976401 112.5279,95.9766193 C112.476212,96.6555984 111.567365,98.2155316 112.777725,98.692536 C113.475513,98.9632682 113.970856,99.0019442 114.780634,98.5893999 C115.57749,98.1725582 119.014739,97.0767374 119.471316,97.4377137 C119.919279,97.8029873 120.64291,98.6581573 120.96596,98.8429427 C121.599137,99.2211083 121.771431,100.093468 122.619975,100.304037 C123.455597,100.514607 124.114618,100.613445 124.459205,100.613445 C124.812406,100.613445 126.052917,100.196604 126.35443,99.4660565 C126.655943,98.731212 127.202974,97.0122774 127.452799,96.1785941 C127.715546,95.3449108 127.948142,94.4080914 127.202974,93.6732469 C126.457806,92.946997 124.907167,91.4343346 124.558273,90.3900818 Z"/>
  </g>
</svg>
