<svg xmlns="http://www.w3.org/2000/svg" width="20" height="20" viewBox="0 0 20 20">
	<path fill="#FFD471" fill-rule="evenodd" d="M4,16 L0,16 L0,12 L4,12 L4,16 L4,16 Z M4,4 L0,4 L0,8 L4,8 L4,4 L4,4 Z M4,8 L0,8 L0,12 L4,12 L4,8 L4,8 Z M20,0 L16,0 L16,4 L20,4 L20,0 L20,0 Z M16,0 L12,0 L12,4 L16,4 L16,0 L16,0 Z M12,0 L8,0 L8,4 L12,4 L12,0 L12,0 Z M8,0 L4,0 L4,4 L8,4 L8,0 L8,0 Z M4,0 L0,0 L0,4 L4,4 L4,0 L4,0 Z M8,16 L4,16 L4,20 L8,20 L8,16 L8,16 Z M8,16 L8,20 L12,20 L12,16 L8,16 Z M16,16 L16,20 L20,20 L20,16 L16,16 Z M16,12 L16,16 L20,16 L20,12 L16,12 Z M4,16 L0,16 L0,20 L4,20 L4,16 L4,16 Z M20,4 L16,4 L16,8 L20,8 L20,4 L20,4 Z M20,8 L16,8 L16,12 L20,12 L20,8 L20,8 Z M12,8 L8,8 L8,12 L12,12 L12,8 L12,8 Z M16,16 L12,16 L12,20 L16,20 L16,16 L16,16 Z"/>
</svg>
