<svg xmlns="http://www.w3.org/2000/svg" width="20" height="20" viewBox="0 0 20 20">
  <path fill="#FFD471" fill-rule="evenodd" d="M5,5 L0,5 L0,0 L5,0 L5,5 L5,5 Z M12.5,0 L7.5,0 L7.5,5 L12.5,5 L12.5,0 L12.5,0 Z M20,0 L15,0 L15,5 L20,5 L20,0 L20,0 Z M12.5,7.5 L7.5,7.5 L7.5,12.5 L12.5,12.5 L12.5,7.5 L12.5,7.5 Z M7.5,15 L7.5,20 L12.5,20 L12.5,15 L7.5,15 Z M15,15 L15,20 L20,20 L20,15 L15,15 Z M5,7.5 L0,7.5 L0,12.5 L5,12.5 L5,7.5 L5,7.5 Z M20,7.5 L15,7.5 L15,12.5 L20,12.5 L20,7.5 L20,7.5 Z M5,15 L0,15 L0,20 L5,20 L5,15 L5,15 Z"/>
</svg>
