<svg xmlns="http://www.w3.org/2000/svg" width="54" height="60" viewBox="0 0 54 60">
  <g fill="none" fill-rule="evenodd">
    <path d="M51.718,32.2269178 C50.792,33.6679178 47.895,36.5009178 47.999,38.2269178 C48.192,41.4109178 46.225,45.4519178 43.459,46.8719178 C41.959,47.6419178 42.355,48.8969178 41.61,50.4449178 C40.235,53.3019178 37.422,51.7709178 36.999,54.8319178 C36.285,60.0029178 31.017,59.2569178 28.428,55.2379178 C27.773,54.2209178 26.226,54.2209178 25.571,55.2379178 C22.982,59.2569178 17.714,60.0029178 17,54.8319178 C16.578,51.7709178 13.764,53.3029178 12.389,50.4449178 C11.644,48.8959178 12.04,47.6409178 10.54,46.8719178 C7.774,45.4519178 5.807,41.4109178 6,38.2269178 C6.104,36.5009178 3.208,33.6679178 2.281,32.2269178 C0.573,29.5689178 0.573,25.8849178 2.281,23.2269178 C3.207,21.7859178 3.652,18.9529178 3.547,17.2269178 C3.354,14.0429178 5.028,10.6469178 7.794,9.22691784 L7.794,9.22691784 C9.294,8.45691784 10.509,8.77591784 11.254,7.22691784 C12.629,4.36991784 13.916,4.02791784 16.999,4.22691784 C18.67,4.33491784 19.416,1.64391784 21.999,1.24991784 C22.012,1.24791784 22.021,1.23491784 22.033,1.22691784 C22.945,0.608917845 24.678,1.34191784 25.836,2.35891784 C26.485,2.92791784 27.417,2.91891784 28.105,2.39891784 C29.027,1.70191784 30.433,1.22791784 31.965,1.22791784 C31.979,1.22791784 31.985,1.25091784 31.999,1.25091784 C34.582,1.25091784 35.328,4.33591784 36.999,4.22791784 C40.082,4.02891784 41.37,4.37091784 42.744,7.22791784 C43.489,8.77691784 44.704,8.45791784 46.204,9.22791784 L46.204,9.22791784 C48.97,10.6479178 50.644,14.0439178 50.451,17.2279178 C50.347,18.9539178 50.791,21.7869178 51.717,23.2279178 C53.426,25.8849178 53.426,29.5689178 51.718,32.2269178 L51.718,32.2269178 Z"/>
    <g fill="#FFE9B6" transform="translate(5 7)">
      <path d="M13 35C9.14 35 6 38.141 6 42 6 42.553 6.448 43 7 43 7.552 43 8 42.553 8 42 8 39.243 10.243 37 13 37 13.552 37 14 36.553 14 36 14 35.447 13.552 35 13 35L13 35zM4.79998779 2.6000061C6.45398779 2.6000061 7.79998779 3.9460061 7.79998779 5.6000061 7.79998779 6.1530061 8.24798779 6.6000061 8.79998779 6.6000061 9.35198779 6.6000061 9.79998779 6.1530061 9.79998779 5.6000061 9.79998779 2.8430061 7.55698779.600006104 4.79998779.600006104 4.24798779.600006104 3.79998779 1.0470061 3.79998779 1.6000061 3.79998779 2.1530061 4.24798779 2.6000061 4.79998779 2.6000061L4.79998779 2.6000061zM16 17C16 16.447 15.552 16 15 16 14.448 16 14 16.447 14 17 14 20.309 11.309 23 8 23 3.589 23 0 26.589 0 31 0 31.553.448 32 1 32 1.552 32 2 31.553 2 31 2 27.691 4.691 25 8 25 12.411 25 16 21.411 16 17L16 17zM17.398 24.29325C17.007 23.90225 16.375 23.90225 15.984 24.29325 14.705 25.57225 14 27.27225 14 29.07825 14 30.88425 14.705 32.58425 15.984 33.86325 16.179 34.05825 16.435 34.15625 16.691 34.15625 16.947 34.15625 17.203 34.05825 17.398 33.86325 17.789 33.47225 17.789 32.84025 17.398 32.44925 16.497 31.54825 16 30.35025 16 29.07825 16 27.80625 16.497 26.60825 17.398 25.70725 17.789 25.31725 17.789 24.68425 17.398 24.29325L17.398 24.29325zM17.5303604 6.10073234C13.8513604 5.46273234 10.3393604 7.92173234 9.69436041 11.5967323 9.23836041 14.1867323 6.76236041 15.9207323 4.17336041 15.4667323 3.62636041 15.3757323 3.11136041 15.7357323 3.01536041 16.2797323 2.91936041 16.8237323 3.28336041 17.3427323 3.82736041 17.4377323 4.22236041 17.5067323 4.61436041 17.5407323 5.00136041 17.5407323 8.22336041 17.5407323 11.0863604 15.2247323 11.6633604 11.9427323 12.1173604 9.35373234 14.5973604 7.61973234 17.1843604 8.07173234 17.7293604 8.16073234 18.2473604 7.80173234 18.3423604 7.25873234 18.4383604 6.71473234 18.0743604 6.19573234 17.5303604 6.10073234L17.5303604 6.10073234z"/>
    </g>
    <g transform="translate(28 1)" opacity=".5">
      <ellipse cx="7" cy="55" fill="#FFFAED" rx="1" ry="1"/>
      <ellipse cx="3" cy="55" fill="#ADB5BD" rx="1" ry="1"/>
      <ellipse cx="9" cy="53" fill="#ADB5BD" rx="1" ry="1"/>
      <ellipse cx="1" cy="53" fill="#ADB5BD" rx="1" ry="1"/>
      <ellipse cx="7" cy="51" fill="#ADB5BD" rx="1" ry="1"/>
      <ellipse cx="3" cy="51" fill="#ADB5BD" rx="1" ry="1"/>
      <ellipse cx="5" cy="49" fill="#ADB5BD" rx="1" ry="1"/>
      <ellipse cx="9" cy="49" fill="#ADB5BD" rx="1" ry="1"/>
      <ellipse cx="1" cy="49" fill="#ADB5BD" rx="1" ry="1"/>
      <ellipse cx="9" cy="45" fill="#ADB5BD" rx="1" ry="1"/>
      <ellipse cx="1" cy="45" fill="#ADB5BD" rx="1" ry="1"/>
      <ellipse cx="3" cy="43" fill="#ADB5BD" rx="1" ry="1"/>
      <ellipse cx="5" cy="41" fill="#ADB5BD" rx="1" ry="1"/>
      <ellipse cx="9" cy="41" fill="#ADB5BD" rx="1" ry="1"/>
      <ellipse cx="1" cy="41" fill="#ADB5BD" rx="1" ry="1"/>
      <ellipse cx="7" cy="39" fill="#ADB5BD" rx="1" ry="1"/>
      <ellipse cx="1" cy="37" fill="#ADB5BD" rx="1" ry="1"/>
      <ellipse cx="7" cy="35" fill="#ADB5BD" rx="1" ry="1"/>
      <ellipse cx="3" cy="35" fill="#EFEFEF" rx="1" ry="1"/>
      <ellipse cx="1" cy="33" fill="#ADB5BD" rx="1" ry="1"/>
      <ellipse cx="3" cy="31" fill="#ADB5BD" rx="1" ry="1"/>
      <ellipse cx="5" cy="29" fill="#FFFDF8" rx="1" ry="1"/>
      <ellipse cx="9" cy="29" fill="#ADB5BD" rx="1" ry="1"/>
      <ellipse cx="1" cy="29" fill="#ADB5BD" rx="1" ry="1"/>
      <ellipse cx="7" cy="27" fill="#ADB5BD" rx="1" ry="1"/>
      <ellipse cx="5" cy="25" fill="#FFFDF6" rx="1" ry="1"/>
      <ellipse cx="9" cy="25" fill="#ADB5BD" rx="1" ry="1"/>
      <ellipse cx="1" cy="25" fill="#ADB5BD" rx="1" ry="1"/>
      <ellipse cx="3" cy="23" fill="#ADB5BD" rx="1" ry="1"/>
      <ellipse cx="5" cy="21" fill="#ADB5BD" rx="1" ry="1"/>
      <ellipse cx="7" cy="19" fill="#ADB5BD" rx="1" ry="1"/>
      <ellipse cx="3" cy="19" fill="#ADB5BD" rx="1" ry="1"/>
      <ellipse cx="1" cy="17" fill="#ADB5BD" rx="1" ry="1"/>
      <ellipse cx="7" cy="15" fill="#ADB5BD" rx="1" ry="1"/>
      <ellipse cx="3" cy="15" fill="#ADB5BD" rx="1" ry="1"/>
      <ellipse cx="5" cy="13" fill="#ADB5BD" rx="1" ry="1"/>
      <ellipse cx="9" cy="13" fill="#ADB5BD" rx="1" ry="1"/>
      <ellipse cx="7" cy="11" fill="#ADB5BD" rx="1" ry="1"/>
      <ellipse cx="3" cy="11" fill="#E2E2E2" rx="1" ry="1"/>
      <ellipse cx="1" cy="9" fill="#ADB5BD" rx="1" ry="1"/>
      <ellipse cx="7" cy="7" fill="#ADB5BD" rx="1" ry="1"/>
      <ellipse cx="9" cy="5" fill="#ADB5BD" rx="1" ry="1"/>
      <ellipse cx="1" cy="5" fill="#ADB5BD" rx="1" ry="1"/>
      <ellipse cx="7" cy="3" fill="#ADB5BD" rx="1" ry="1"/>
      <ellipse cx="3" cy="3" fill="#ADB5BD" rx="1" ry="1"/>
      <ellipse cx="5" cy="1" fill="#ADB5BD" rx="1" ry="1"/>
      <ellipse cx="1" cy="1" fill="#ADB5BD" rx="1" ry="1"/>
      <ellipse cx="11" cy="51" fill="#ADB5BD" rx="1" ry="1"/>
      <ellipse cx="13" cy="49" fill="#ADB5BD" rx="1" ry="1"/>
      <ellipse cx="11" cy="47" fill="#ADB5BD" rx="1" ry="1"/>
      <ellipse cx="13" cy="45" fill="#ADB5BD" rx="1" ry="1"/>
      <ellipse cx="15" cy="43" fill="#EAEAEA" rx="1" ry="1"/>
      <ellipse cx="17" cy="41" fill="#ADB5BD" rx="1" ry="1"/>
      <ellipse cx="13" cy="41" fill="#ADB5BD" rx="1" ry="1"/>
      <ellipse cx="15" cy="39" fill="#ADB5BD" rx="1" ry="1"/>
      <ellipse cx="19" cy="39" fill="#ADB5BD" rx="1" ry="1"/>
      <ellipse cx="17" cy="37" fill="#ADB5BD" rx="1" ry="1"/>
      <ellipse cx="15" cy="35" fill="#ADB5BD" rx="1" ry="1"/>
      <ellipse cx="19" cy="35" fill="#ADB5BD" rx="1" ry="1"/>
      <ellipse cx="11" cy="35" fill="#ADB5BD" rx="1" ry="1"/>
      <ellipse cx="15" cy="31" fill="#ADB5BD" rx="1" ry="1"/>
      <ellipse cx="19" cy="31" fill="#ADB5BD" rx="1" ry="1"/>
      <ellipse cx="11" cy="31" fill="#EAEAEA" rx="1" ry="1"/>
      <ellipse cx="15" cy="27" fill="#ECECEC" rx="1" ry="1"/>
      <ellipse cx="19" cy="27" fill="#ADB5BD" rx="1" ry="1"/>
      <ellipse cx="13" cy="25" fill="#ADB5BD" rx="1" ry="1"/>
      <ellipse cx="15" cy="23" fill="#ADB5BD" rx="1" ry="1"/>
      <ellipse cx="17" cy="21" fill="#ADB5BD" rx="1" ry="1"/>
      <ellipse cx="13" cy="21" fill="#E6E6E6" rx="1" ry="1"/>
      <ellipse cx="15" cy="19" fill="#ADB5BD" rx="1" ry="1"/>
      <ellipse cx="11" cy="19" fill="#E6E6E6" rx="1" ry="1"/>
      <ellipse cx="17" cy="17" fill="#ADB5BD" rx="1" ry="1"/>
      <ellipse cx="19" cy="15" fill="#ADB5BD" rx="1" ry="1"/>
      <ellipse cx="17" cy="13" fill="#ADB5BD" rx="1" ry="1"/>
      <ellipse cx="13" cy="13" fill="#ADB5BD" rx="1" ry="1"/>
      <ellipse cx="19" cy="11" fill="#ADB5BD" rx="1" ry="1"/>
      <ellipse cx="11" cy="11" fill="#ADB5BD" rx="1" ry="1"/>
      <ellipse cx="17" cy="9" fill="#ADB5BD" rx="1" ry="1"/>
      <ellipse cx="13" cy="9" fill="#ADB5BD" rx="1" ry="1"/>
      <ellipse cx="15" cy="7" fill="#ADB5BD" rx="1" ry="1"/>
      <ellipse cx="13" cy="5" fill="#ADB5BD" rx="1" ry="1"/>
      <ellipse cx="11" cy="3" fill="#ADB5BD" rx="1" ry="1"/>
      <ellipse cx="21" cy="33" fill="#ADB5BD" rx="1" ry="1"/>
      <ellipse cx="23" cy="31" fill="#ADB5BD" rx="1" ry="1"/>
      <ellipse cx="23" cy="27" fill="#ADB5BD" rx="1" ry="1"/>
      <ellipse cx="21" cy="25" fill="#ADB5BD" rx="1" ry="1"/>
      <ellipse cx="23" cy="23" fill="#ADB5BD" rx="1" ry="1"/>
      <ellipse cx="21" cy="21" fill="#ADB5BD" rx="1" ry="1"/>
      <ellipse cx="21" cy="17" fill="#ADB5BD" rx="1" ry="1"/>
      <ellipse cx="21" cy="13" fill="#ADB5BD" rx="1" ry="1"/>
    </g>
    <path fill="#FFE9B6" d="M33.505,59.482 C31.355,59.482 29.029,58.029 27.58,55.78 C27.403,55.506 27.11,55.475 26.992,55.475 C26.874,55.475 26.581,55.505 26.404,55.78 C24.955,58.029 22.629,59.482 20.479,59.482 C18.065,59.482 16.392,57.794 16.001,54.968 C15.859,53.942 15.472,53.794 14.536,53.439 C13.594,53.08 12.303,52.589 11.48,50.878 C11.175,50.244 11.033,49.654 10.918,49.181 C10.711,48.325 10.62,48.041 10.075,47.761 C7.047,46.206 4.767,41.902 4.993,38.165 C5.044,37.321 3.55,35.477 2.658,34.376 C2.158,33.758 1.726,33.225 1.431,32.767 C-0.477,29.799 -0.477,25.654 1.431,22.685 C2.205,21.482 2.637,18.874 2.541,17.287 C2.316,13.58 4.286,9.899 7.33,8.337 C7.917,8.035 8.445,7.883 8.911,7.749 C9.712,7.518 10.043,7.422 10.345,6.793 C11.629,4.126 13.046,3.181 15.758,3.181 C16.155,3.181 16.586,3.199 17.056,3.229 L17.057,3.229 C17.423,3.229 17.847,2.81 18.336,2.325 C19.073,1.596 20.071,0.607 21.628,0.3 C21.989,0.099 22.399,0 22.857,0 C24.183,0 25.602,0.83 26.488,1.606 C26.909,1.975 27.228,1.802 27.495,1.6 C28.649,0.727 30.276,0.226 31.958,0.226 L32.463,0.276 C34.032,0.457 35.023,1.515 35.764,2.308 C36.187,2.76 36.625,3.229 36.906,3.229 C37.398,3.198 37.829,3.18 38.226,3.18 C40.938,3.18 42.354,4.125 43.638,6.792 C43.941,7.421 44.272,7.517 45.073,7.748 C45.538,7.882 46.066,8.034 46.654,8.336 C49.698,9.899 51.667,13.579 51.443,17.286 C51.347,18.874 51.779,21.481 52.553,22.684 C54.461,25.653 54.461,29.798 52.553,32.766 C52.258,33.224 51.826,33.757 51.326,34.375 C50.434,35.477 48.94,37.32 48.991,38.164 C49.218,41.9 46.938,46.205 43.909,47.76 C43.364,48.04 43.272,48.323 43.066,49.18 C42.952,49.654 42.81,50.243 42.505,50.877 C41.682,52.588 40.391,53.078 39.448,53.438 C38.512,53.793 38.125,53.941 37.983,54.967 C37.523,58.297 35.369,59.482 33.505,59.482 L33.505,59.482 Z M26.992,53.476 C27.92,53.476 28.768,53.933 29.261,54.697 C30.352,56.389 32.017,57.483 33.505,57.483 C34.866,57.483 35.753,56.493 36.001,54.696 C36.305,52.496 37.71,51.961 38.736,51.571 C39.567,51.255 40.224,51.005 40.701,50.012 C40.913,49.571 41.018,49.134 41.12,48.712 C41.348,47.767 41.607,46.694 42.994,45.983 C45.301,44.799 47.169,41.203 46.993,38.288 C46.895,36.668 48.422,34.782 49.77,33.118 C50.214,32.57 50.633,32.053 50.868,31.686 C52.367,29.356 52.367,26.099 50.868,23.768 C49.825,22.146 49.325,19.138 49.445,17.166 C49.62,14.273 48.062,11.309 45.739,10.116 C45.324,9.903 44.913,9.785 44.517,9.67 C43.583,9.4 42.525,9.095 41.835,7.66 C40.814,5.539 40.038,5.181 38.225,5.181 C37.867,5.181 37.478,5.198 37.055,5.225 L36.905,5.23 C35.757,5.23 34.984,4.404 34.302,3.675 C33.473,2.788 32.904,2.25 31.991,2.25 L31.523,2.241 C30.44,2.315 29.409,2.66 28.701,3.196 C27.653,3.987 26.129,3.952 25.169,3.11 C24.436,2.467 23.463,2 22.857,2 C22.76,2 22.678,2.013 22.623,2.035 L22.467,2.179 L22.139,2.24 C21.106,2.397 20.445,3.053 19.744,3.746 C19.041,4.442 18.245,5.23 17.09,5.23 L16.927,5.225 C16.504,5.198 16.115,5.181 15.758,5.181 C13.945,5.181 13.169,5.539 12.148,7.66 C11.459,9.095 10.4,9.4 9.466,9.67 C9.07,9.785 8.659,9.903 8.244,10.116 C5.922,11.308 4.363,14.273 4.538,17.166 C4.658,19.138 4.158,22.145 3.115,23.768 C1.616,26.099 1.616,29.356 3.115,31.686 C3.35,32.052 3.769,32.57 4.213,33.118 C5.561,34.782 7.088,36.668 6.99,38.288 C6.814,41.203 8.682,44.8 10.989,45.983 C12.376,46.695 12.635,47.767 12.863,48.712 C12.965,49.134 13.07,49.57 13.283,50.012 C13.76,51.004 14.417,51.254 15.248,51.571 C16.274,51.961 17.68,52.496 17.983,54.696 C18.231,56.493 19.118,57.483 20.479,57.483 C21.944,57.483 23.649,56.364 24.723,54.697 C25.216,53.933 26.064,53.476 26.992,53.476 L26.992,53.476 Z"/>
  </g>
</svg>
