<svg xmlns="http://www.w3.org/2000/svg" width="58" height="58" viewBox="0 0 58 58" xmlns:xlink="http://www.w3.org/1999/xlink">
  <defs>
    <rect id="a" width="58" height="58" x="227" y="306"/>
    <mask id="b" width="58" height="58" x="0" y="0" fill="white">
      <use xlink:href="#a"/>
    </mask>
  </defs>
  <g fill="none" fill-rule="evenodd" transform="translate(-227 -306)">
    <use stroke="#FFE9B6" stroke-width="8" mask="url(#b)" xlink:href="#a"/>
    <path fill="#FFCEBD" d="M258.055556,339.3 L253.944444,339.3 L253.944444,343.5 L258.055556,343.5 L258.055556,339.3 Z M262.166667,335.1 L258.055556,335.1 L258.055556,339.3 L262.166667,339.3 L262.166667,335.1 Z M266.277778,330.9 L262.166667,330.9 L262.166667,335.1 L266.277778,335.1 L266.277778,330.9 Z M270.388889,326.7 L266.277778,326.7 L266.277778,330.9 L270.388889,330.9 L270.388889,326.7 Z M274.5,322.5 L270.388889,322.5 L270.388889,326.7 L274.5,326.7 L274.5,322.5 Z M253.944444,335.1 L249.833333,335.1 L249.833333,339.3 L253.944444,339.3 L253.944444,335.1 Z M245.722222,326.7 L241.611111,326.7 L241.611111,330.9 L245.722222,330.9 L245.722222,326.7 Z M241.611111,322.5 L237.5,322.5 L237.5,326.7 L241.611111,326.7 L241.611111,322.5 Z M249.833333,330.9 L245.722222,330.9 L245.722222,335.1 L249.833333,335.1 L249.833333,330.9 Z M258.055556,347.3 L253.944444,347.3 L253.944444,351.5 L258.055556,351.5 L258.055556,347.3 Z M262.166667,343.1 L258.055556,343.1 L258.055556,347.3 L262.166667,347.3 L262.166667,343.1 Z M266.277778,338.9 L262.166667,338.9 L262.166667,343.1 L266.277778,343.1 L266.277778,338.9 Z M270.388889,334.7 L266.277778,334.7 L266.277778,338.9 L270.388889,338.9 L270.388889,334.7 Z M274.5,330.5 L270.388889,330.5 L270.388889,334.7 L274.5,334.7 L274.5,330.5 Z M253.944444,343.1 L249.833333,343.1 L249.833333,347.3 L253.944444,347.3 L253.944444,343.1 Z M245.722222,334.7 L241.611111,334.7 L241.611111,338.9 L245.722222,338.9 L245.722222,334.7 Z M241.611111,330.5 L237.5,330.5 L237.5,334.7 L241.611111,334.7 L241.611111,330.5 Z M249.833333,338.9 L245.722222,338.9 L245.722222,343.1 L249.833333,343.1 L249.833333,338.9 Z"/>
  </g>
</svg>
