<svg xmlns="http://www.w3.org/2000/svg" width="32" height="32" viewBox="0 0 32 32">
  <g fill="none" fill-rule="evenodd" transform="translate(-211 -200)">
    <path fill="#FFE3E3" d="M19.7983939,11.989358 C19.0109165,17.0810085 15.1540655,20 10.1607127,20 C4.54934207,20 -6.21724894e-14,15.5223034 -6.21724894e-14,9.99930379 C-6.21724894e-14,4.47769655 4.54934207,-1.59872116e-14 10.1607127,-1.59872116e-14 C12.8750999,-1.59872116e-14 15.253498,0.953403948 16.9846752,2.60838431 L14.0686946,5.47844249 C13.0811395,4.49917947 11.7297057,3.97722413 10.1607127,3.97722413 C6.85761201,3.97722413 4.17970361,6.74951514 4.17970361,9.99920434 C4.17970361,13.2517778 6.85761201,15.9436073 10.1607127,15.9436073 C12.9291613,15.9436073 15.0256318,14.6264857 15.6304121,11.989358 L10.1607127,11.989358 L10.1607127,7.97324581 L19.7736369,7.97324581 C19.8890352,8.62031926 19.9474417,9.29752847 19.9474417,9.99920434 C19.9473407,10.6952111 19.8962097,11.3580984 19.7983939,11.989358 L19.7983939,11.989358 Z M32,10.7441444 L28.4397288,10.7441444 L28.4397288,14.2468546 L25.9108682,14.2468546 L25.9108682,10.7441444 L22.350597,10.7441444 L22.350597,8.25361778 L25.9108682,8.25361778 L25.9108682,4.74941568 L28.4397288,4.74941568 L28.4397288,8.25361778 L32,8.25361778 L32,10.7441444 L32,10.7441444 Z" transform="translate(211 206)"/>
  </g>
</svg>
