<svg xmlns="http://www.w3.org/2000/svg" width="32" height="32" viewBox="0 0 32 32">
  <g fill="none" fill-rule="evenodd" transform="translate(-210 -122)">
    <path fill="#FFE3E3" d="M26.1194667,7.64038095 C26.1196207,8.38928321 25.6685911,9.06452226 24.9767251,9.35118593 C24.2848591,9.6378496 23.4884343,9.47947344 22.9588804,8.94991956 C22.4293266,8.42036567 22.2709504,7.62394087 22.5576141,6.93207487 C22.8442777,6.24020887 23.5195168,5.78917926 24.268419,5.78933333 C25.2906373,5.78954364 26.1192564,6.61816271 26.1194667,7.64038095 L26.1194667,7.64038095 L26.1194667,7.64038095 Z M32,16 L31.999619,16.0233142 L31.8944762,22.7360762 C31.8376528,27.7702276 27.7705324,31.8373481 22.736381,31.8941714 L16,32 L15.9766857,31.9995428 L9.26392381,31.8947048 C4.22969555,31.8378861 0.162441327,27.770835 0.105371429,22.7366095 L0,16 L0.000457142857,15.9766857 L0.105295238,9.26369523 C0.162526292,4.22953764 4.22968718,0.16257977 9.26384762,0.1056 L16,0 L16.0233143,0.00045714285 L22.7360762,0.105295238 C27.7701598,0.162279755 31.8371869,4.22930683 31.8941714,9.26339048 L32,16 L32,16 Z M29.0200381,16 L28.9153524,9.31047619 C28.8766893,5.88817623 26.1118233,3.12327635 22.6895238,3.08457143 L16,2.98011428 L9.31047619,3.08457143 C5.88818503,3.12335535 3.12332104,5.88818551 3.08449524,9.31047619 L2.9800381,16 L3.08449524,22.6895238 C3.12320017,26.1118653 5.88813416,28.8767655 9.31047619,28.9154285 L16,29.0198857 L22.6895238,28.9154285 C26.1118742,28.8768445 28.8768102,26.1118747 28.9153524,22.6895238 L29.0200381,16 L29.0200381,16 Z M24.216381,16 C24.216381,19.3232537 22.2144972,22.3192769 19.1442082,23.5910239 C16.0739193,24.8627709 12.5398686,24.1597917 10.1899843,21.8098857 C7.84010002,19.4599795 7.13715363,15.9259224 8.40892909,12.8556452 C9.68070455,9.78536801 12.6767464,7.78351204 16,7.78354285 C20.5356881,7.78866546 24.2113004,11.4643118 24.216381,16 L24.216381,16 L24.216381,16 Z M21.2368,16 C21.2368,13.8818744 19.9608678,11.9723144 18.003972,11.16175 C16.0470761,10.3511855 13.7945963,10.7992444 12.2968662,12.2969962 C10.7991361,13.7947481 10.35111,16.0472344 11.161703,18.0041185 C11.9722959,19.9610026 13.8818744,21.236907 16,21.2368762 C18.8908297,21.2335172 21.2334489,18.8908298 21.2367238,16 L21.2368,16 L21.2368,16 Z" transform="translate(210 122)"/>
  </g>
</svg>
