<svg xmlns="http://www.w3.org/2000/svg" width="105" height="105" viewBox="0 0 105 105">
  <g fill="none" fill-rule="evenodd" transform="translate(-480 -40)">
    <path fill="#FFE3E3" d="M87.0589403,0 L6.94543062,0 C3.10927128,0 0,3.01438675 0,6.73489136 L0,87.2622676 C0,90.9829907 3.11036402,94 6.94543062,94 L87.0589403,94 C90.8942255,94 94,90.9810238 94,87.2622676 L94,6.73489136 C94,3.01547947 90.8942255,0 87.0589403,0 L87.0589403,0 Z M28.4981203,78.6843889 L14.2953921,78.6843889 L14.2953921,36.2445422 L28.4981203,36.2445422 L28.4981203,78.6843889 L28.4981203,78.6843889 Z M21.3981768,30.4465519 L21.3026716,30.4465519 C16.5398721,30.4465519 13.4524555,27.189362 13.4524555,23.1115368 C13.4524555,18.9515389 16.6305692,15.782641 21.4877811,15.782641 C26.3454302,15.782641 29.3334077,18.9506647 29.4278201,23.1115368 C29.4278201,27.1902362 26.3465229,30.4465519 21.3981768,30.4465519 L21.3981768,30.4465519 Z M79.6947732,78.6843889 L65.4966346,78.6843889 L65.4966346,55.9775968 C65.4966346,50.2720509 63.4394496,46.378896 58.3049013,46.378896 C54.3769521,46.378896 52.0452718,49.005366 51.0213781,51.5411399 C50.6419801,52.446789 50.5480048,53.713474 50.5480048,54.9784106 L50.5480048,78.6835148 L36.3524888,78.6835148 C36.3524888,78.6835148 36.5382539,40.2242408 36.3524888,36.2438866 L50.5501903,36.2438866 L50.5501903,42.2606401 C52.4349415,39.3695126 55.8029727,35.2453559 63.3426332,35.2453559 C72.6877123,35.2453559 79.6947732,41.3075668 79.6947732,54.3492204 L79.6947732,78.6843889 L79.6947732,78.6843889 Z M50.4584005,42.3954822 C50.4826592,42.355707 50.516534,42.3078458 50.5501903,42.2612957 L50.5501903,42.3954822 L50.4584005,42.3954822 L50.4584005,42.3954822 Z" transform="translate(485 46)"/>
  </g>
</svg>
