<svg xmlns="http://www.w3.org/2000/svg" width="82" height="82" viewBox="0 0 82 82">
  <g fill="none" fill-rule="evenodd" stroke-width=".5" transform="translate(1 1)">
    <polygon stroke="#FFDE93" points="28.425 32.869 28.425 53.307 51.575 47.131 51.575 39.559 43.201 28.927"/>
    <polygon stroke="#FFDE93" points="28.425 79.297 51.575 73.121 51.575 52.59 28.425 58.766"/>
    <polygon stroke="#FFE9B6" points="0 46.408 23.15 53.216 23.15 32.816 0 26.009"/>
    <path stroke="#FFDE93" d="M40.1464615,20.183033 C40.1464615,13.3287033 45.0758681,7.60703297 51.575033,6.3687033 L51.575033,0.703648352 L28.424967,6.8792967 L28.424967,27.4095824 L40.7180659,24.1301099 C40.3433846,22.8536264 40.1464615,21.5235165 40.1464615,20.183033 L40.1464615,20.183033 Z"/>
    <path stroke="#FFCC56" d="M63.0036044,20.183033 C63.0036044,15.3355604 59.0598681,11.3918242 54.2123956,11.3918242 C49.3649231,11.3918242 45.4211868,15.3355604 45.4211868,20.183033 C45.4211868,22.1772308 46.0756044,24.0587253 47.3135824,25.6239121 L54.2123956,34.3822418 L61.1083956,25.6277802 C62.3493626,24.0587253 63.0036044,22.1772308 63.0036044,20.183033 L63.0036044,20.183033 Z M54.2123956,22.8036923 C52.7672967,22.8036923 51.5917363,21.627956 51.5917363,20.183033 C51.5917363,18.7379341 52.7672967,17.5623736 54.2123956,17.5623736 C55.6574945,17.5623736 56.8330549,18.7379341 56.8330549,20.183033 C56.8330549,21.627956 55.6574945,22.8036923 54.2123956,22.8036923 L54.2123956,22.8036923 Z"/>
    <polygon stroke="#FFE9B6" points="0 72.417 23.15 79.224 23.15 58.714 0 51.906"/>
    <polygon stroke="#FFE9B6" points="56.85 73.193 80 80 80 59.489 56.85 52.682"/>
    <polygon stroke="#FFE9B6" points="56.85 39.559 56.85 47.184 80 53.991 80 33.592 65.02 29.187"/>
    <polygon stroke="#FFE9B6" points="0 20.511 23.15 27.318 23.15 6.807 0 0"/>
    <path stroke="#FFE9B6" d="M56.8497582,0.77556044 L56.8497582,6.3687033 C63.3489231,7.60703297 68.2783297,13.3287033 68.2783297,20.183033 C68.2783297,21.6356923 68.0465934,23.0762198 67.6079121,24.4499341 L80,28.0937143 L80,7.58294505 L56.8497582,0.77556044 L56.8497582,0.77556044 Z"/>
  </g>
</svg>
