<svg xmlns="http://www.w3.org/2000/svg" width="35" height="20" viewBox="0 0 35 20">
  <path fill="#FFE9B6" fill-rule="evenodd" d="M4.9689441,20 L0,20 L0,15 L4.9689441,15 L4.9689441,20 L4.9689441,20 Z M9.9378882,10 L4.9689441,10 L4.9689441,15 L9.9378882,15 L9.9378882,10 L9.9378882,10 Z M14.9068323,5 L9.9378882,5 L9.9378882,10 L14.9068323,10 L14.9068323,5 L14.9068323,5 Z M19.8757764,0 L14.9068323,0 L14.9068323,5 L19.8757764,5 L19.8757764,0 L19.8757764,0 Z M9.9378882,20 L4.9689441,20 L4.9689441,25 L9.9378882,25 L9.9378882,20 L9.9378882,20 Z M14.9068323,25 L9.9378882,25 L9.9378882,30 L14.9068323,30 L14.9068323,25 L14.9068323,25 Z M19.8757764,30 L14.9068323,30 L14.9068323,35 L19.8757764,35 L19.8757764,30 L19.8757764,30 Z" transform="rotate(-90 10 10)"/>
</svg>
