<svg xmlns="http://www.w3.org/2000/svg" width="105" height="105" viewBox="0 0 105 105">
  <path fill="#FFE3E3" fill-rule="evenodd" d="M98.2968534,25.1679269 C96.1904422,26.1013743 94.0038242,26.8377836 91.7601137,27.3709181 C94.2324252,25.0230936 96.0912816,22.0864649 97.1399799,18.8086579 L97.1399799,18.8086579 C97.4393108,17.8729006 96.4222792,17.0637281 95.5767561,17.5647544 L95.5767561,17.5647544 C92.4553935,19.4150175 89.0931794,20.8030614 85.5832646,21.6907719 C85.3796271,21.7422836 85.1695176,21.768386 84.9587147,21.768386 C84.3193716,21.768386 83.6978266,21.531155 83.208958,21.1005819 C79.4746028,17.8114561 74.6716709,16 69.6852111,16 C67.527486,16 65.348958,16.3360965 63.2099556,16.9990497 C56.5826077,19.0532807 51.4690188,24.5165234 49.8646514,31.2569327 C49.2627536,33.7851637 49.0997974,36.3157047 49.3799434,38.7781023 C49.4120724,39.0610702 49.2782403,39.2585702 49.195722,39.3511988 C49.050795,39.5135877 48.8453084,39.6066784 48.6319629,39.6066784 C48.6081551,39.6066784 48.5836539,39.6055234 48.5593838,39.6032135 C34.0523522,38.2562865 20.9705517,31.2717164 11.7236539,19.9363713 L11.7236539,19.9363713 C11.252121,19.358193 10.3478875,19.4291082 9.97204804,20.0733509 L9.97204804,20.0733509 C8.16126945,23.1779123 7.20433515,26.7287544 7.20433515,30.3419649 C7.20433515,35.8793567 9.4304787,41.0977456 13.2972792,44.9019883 C11.6711843,44.5166901 10.0973278,43.9098684 8.63534488,43.098386 L8.63534488,43.098386 C7.92804561,42.7056959 7.05779013,43.2104181 7.04785096,44.0188977 L7.04785096,44.0188977 C6.94661009,52.2450614 11.7659532,59.5648041 18.9854909,62.8608596 C18.8401016,62.8643246 18.6947123,62.8659415 18.5490918,62.8659415 C17.4047001,62.8659415 16.2459775,62.7555263 15.1055152,62.5376988 L15.1055152,62.5376988 C14.3089945,62.3857047 13.6398339,63.1408246 13.8871575,63.912576 L13.8871575,63.912576 C16.2304909,71.2237719 22.529615,76.6128655 30.0676685,77.8364415 C23.8115371,82.0333743 16.5261235,84.2472222 8.94345923,84.2472222 L6.57955412,84.2458363 C5.85122079,84.2458363 5.23522322,84.7202982 5.04961495,85.4252924 C4.8667804,86.1196608 5.20355656,86.8521433 5.82463928,87.2131871 C14.3690918,92.1825643 24.1152597,94.8089678 34.0137512,94.8089678 C42.6781673,94.8089678 50.7829848,93.0906023 58.1033011,89.7019181 C64.8140918,86.5952778 70.7443108,82.1544152 75.7291527,76.5026813 C80.3728266,71.2378626 84.0040918,65.1601754 86.5217074,58.4387076 C88.9216709,52.0316228 90.1901867,45.1951199 90.1901867,38.6681491 L90.1901867,38.357231 C90.1899556,37.3092105 90.6642622,36.3230965 91.4917561,35.6518275 C94.6318412,33.103962 97.3662695,30.1047339 99.6187634,26.7375322 L99.6187634,26.7375322 C100.213496,25.8484357 99.2755152,24.7341199 98.2968534,25.1679269 L98.2968534,25.1679269 L98.2968534,25.1679269 Z" transform="translate(0 -3)"/>
</svg>
