<svg xmlns="http://www.w3.org/2000/svg" width="33" height="30" viewBox="0 0 33 30">
  <path fill="#583D00" fill-rule="evenodd" d="M7.44566709,30.2237926 C6.52570858,29.1511465 5.74204023,26.3995762 5.98054799,25.0937462 C6.21337699,23.805405 7.56492097,26.7843297 7.8715738,29.2560793 C8.03625773,30.6143757 7.94539764,30.812582 7.44566709,30.2237926 Z M10.6995944,30.4219989 C9.43323176,29.5592184 7.64442356,27.0291728 7.6387448,26.0964371 C7.63306604,24.8547327 10.8188483,28.5273795 11.3299363,30.3520437 C11.4207964,30.6785012 11.1255011,30.7134788 10.6995944,30.4219989 Z M23.6528373,30.5094429 C23.6528373,29.4018192 26.8726921,25.3735669 27.3610651,25.8690828 C27.6222879,26.1372443 26.5603605,28.171774 25.6063294,29.2327609 C24.7488373,30.188815 23.6528373,30.9058556 23.6528373,30.5094429 Z M27.0941636,29.594196 C27.224775,27.8977829 27.9857283,25.6358988 28.667179,24.9013695 L28.9340806,24.6157191 L28.9681531,25.5717732 C29.0192619,27.1341056 28.43435,29.2152721 27.690433,30.1188598 C27.1566299,30.7717748 27.014661,30.6435237 27.0941636,29.594196 Z M4.33370869,26.6793969 C3.82262063,25.3211005 4.08384341,21.8524896 4.73122162,21.2928482 C5.34452729,20.774014 5.52624749,25.4143741 4.95837187,26.8834328 C4.71418535,27.5013702 4.63468277,27.4722222 4.33370869,26.6793969 Z M30.0811893,26.9475584 C29.5246712,25.589262 29.6609614,20.8614579 30.2401945,21.2287226 C30.4446297,21.3569738 30.8023914,22.587019 30.9216452,23.5547323 C31.1658318,25.6009212 30.5468473,28.1018189 30.0811893,26.9475584 Z M9.22879654,26.1663923 C7.54220594,25.1870198 5.41267237,22.7152701 5.85561535,22.2605615 C6.11115938,21.9982296 8.55302455,23.8695306 9.26286908,24.8722215 C10.4326929,26.5336569 10.4213353,26.865944 9.22879654,26.1663923 Z M24.9021637,26.3237914 C24.9021637,25.3619077 28.6898941,21.7533864 29.1725883,22.2547319 C29.297521,22.382983 28.6898941,23.5255843 28.1504122,24.1784993 C26.9521947,25.61841 24.9021637,26.9708768 24.9021637,26.3237914 Z M2.05652745,24.1726697 C1.96566735,22.4471086 2.68686939,20.1910541 3.68065172,19.0717713 L4.03841337,18.669529 L4.14063098,18.9493497 C4.42456879,19.7480047 3.57843411,22.6336558 2.64711809,24.0211001 C2.22689014,24.6506967 2.07924247,24.6856743 2.05652745,24.1726697 Z M32.5457695,24.283432 C31.6371685,23.2574228 30.3935209,19.1125785 30.8989302,18.7977802 C31.0749717,18.6870178 31.7961737,19.6080943 32.1823291,20.4358973 C33.022785,22.2430727 33.2953653,25.1345534 32.5457695,24.283432 Z M6.32127336,21.8408304 C5.3956361,20.7215476 4.27692113,16.5067481 4.90158431,16.5067481 C5.62278635,16.5067481 7.12765674,20.5291708 6.88914898,21.8233416 C6.79828888,22.3130279 6.71878629,22.3188575 6.32127336,21.8408304 Z M28.1504122,22.0332072 C27.8267231,21.164597 28.6103915,18.4013675 29.53035,17.1596631 C30.1209406,16.3610081 30.2401945,16.3493489 30.2401945,17.1071967 C30.2345157,19.0134753 28.5308889,23.0417276 28.1504122,22.0332072 Z M32.6479871,19.8063007 C31.1999043,18.3197531 29.3997386,14.4955367 30.4275935,15.0843261 C31.5576659,15.7372411 33.00007,18.0282732 33.2840078,19.6314127 C33.4259767,20.4417269 33.3010441,20.4767044 32.6479871,19.8063007 Z M1.66469327,19.7713231 C1.89752228,18.2672867 3.3853564,15.8188555 4.44160506,15.1892589 L4.7993667,14.9793934 L4.7993667,15.2825325 C4.7993667,16.1802906 3.49893153,18.669529 2.47675541,19.7130271 C1.81234093,20.3950901 1.56247566,20.4125789 1.66469327,19.7713231 Z M6.03733555,17.0314119 C5.537605,15.8188555 6.25880704,11.2601097 6.94593654,11.2601097 C7.63306604,11.2601097 7.17876555,16.1219946 6.39509719,17.1071967 L6.17930446,17.3811878 L6.03733555,17.0314119 Z M28.6103915,17.0722191 C27.9402982,16.028721 27.4689615,12.5892581 27.8551169,11.5574192 C28.3434899,10.2341005 29.4338111,14.274012 29.110122,16.232757 C28.9397593,17.2820846 28.8432205,17.4394838 28.6103915,17.0722191 Z M1.00595755,16.174461 C0.926454964,16.0403802 1.65901451,14.9094382 2.22689014,14.3089896 C2.99352222,13.4811866 4.93565685,12.3094374 5.537605,12.3094374 C6.1736257,12.3094374 3.73743929,14.9910526 2.5165067,15.638138 C1.89184352,15.9704251 1.05706636,16.261905 1.00595755,16.174461 Z M33.0171063,15.8829811 C31.5519872,15.1542813 29.3315935,13.0439668 29.3315935,12.3793926 C29.3315935,11.604056 32.6536659,13.8834289 33.5281943,15.2533845 C34.2493964,16.3901561 34.1926088,16.4601113 33.0171063,15.8829811 Z M7.97947017,12.0412759 C7.97947017,10.5547284 9.94999858,7.08028786 10.8074908,7.06862866 C11.4321539,7.05113986 9.95567733,10.4323068 8.7404235,11.8022624 C8.0930453,12.5309621 7.97947017,12.5659397 7.97947017,12.0412759 Z M26.4240703,12.0004687 C25.4416455,10.9861186 24.2434279,8.63096097 24.1298528,7.48253013 L24.0730653,6.90539991 L24.4251481,7.16190223 C25.6063294,8.02468276 26.7988682,10.1874637 27.014661,11.8547288 C27.1055211,12.5542805 26.991946,12.5834285 26.4240703,12.0004687 Z M30.8535002,11.8547288 C29.3031997,11.3184057 26.8329408,9.41212712 26.8329408,8.75338253 C26.8329408,8.33948106 29.5246712,9.54620788 30.5468473,10.4206476 C32.1141841,11.7614552 32.2334379,12.3327558 30.8535002,11.8547288 Z M3.2433875,11.7731144 C3.85101441,10.5955356 6.23609202,8.98656646 7.75231992,8.74172333 C8.29180176,8.65427936 8.30315928,8.69508655 7.89428883,9.24889837 C7.11062047,10.3040556 4.65171904,11.8955359 3.56139784,12.0412759 L3.07302481,12.1112311 L3.2433875,11.7731144 Z M11.8410244,8.75921213 C11.8410244,7.67490687 15.9921952,4.29373993 16.5827858,4.89418854 C16.8212936,5.13903167 15.3788895,6.77714875 14.1693144,7.63409968 C13.1868896,8.33365146 11.8410244,8.98073686 11.8410244,8.75921213 Z M22.0571068,8.36862905 C20.6658115,7.65158848 18.7066406,5.90853862 18.4851692,5.19149805 C18.138765,4.0838744 21.3813348,6.03678978 22.5625161,7.65158848 C23.4370446,8.8466561 23.3121119,9.02154405 22.0571068,8.36862905 Z M4.3450662,8.2228891 C4.12927346,8.07714914 4.36778123,7.86145401 5.19687963,7.46504133 C6.78693137,6.69553438 10.0238224,6.43320246 10.0238224,7.06862866 C10.0238224,7.72154365 5.08330451,8.73006414 4.3450662,8.2228891 Z M28.1390547,8.26952588 C24.6636559,7.54082611 23.8515938,6.55562402 26.8897283,6.75383036 C28.854578,6.88208152 31.4440908,7.91392039 30.6206712,8.24037789 C30.3991997,8.33365146 28.5308889,8.35114026 28.1390547,8.26952588 Z M22.8294177,5.89104983 C22.471656,5.83275385 22.0684643,5.72782108 21.9321742,5.6520363 L21.6823089,5.51795555 L21.960568,5.30809001 C22.8975627,4.57356064 27.6279666,4.3928431 27.6279666,5.08656528 C27.6279666,5.58791072 24.3626818,6.13589295 22.8294177,5.89104983 Z M8.8312836,5.72782108 C7.95107639,5.51795555 7.26962565,5.22064604 7.35480699,5.08073568 C7.79207122,4.35786551 12.0795322,4.52692386 13.0789932,5.30809001 L13.3572523,5.51795555 L13.0789932,5.6753547 C12.6814803,5.90270903 9.71716957,5.93768661 8.8312836,5.72782108 Z M19.3937701,4.54441265 C19.2688375,4.51526466 19.047366,4.46279828 18.8997184,4.42782069 C18.2466614,4.28791033 19.677708,3.47759619 21.1428271,3.15696829 C22.426226,2.88297717 24.4194694,2.95876195 24.5273658,3.29104905 C24.6920497,3.78656489 20.4897701,4.81840377 19.3937701,4.54441265 Z M12.5622264,4.26459194 C12.1192834,4.14799998 11.4321539,3.87983846 11.0289623,3.66997293 L10.3077602,3.29687864 L10.6484856,3.14530909 C11.9034907,2.58566767 16.764506,3.65248413 16.3272418,4.3870135 C16.2023092,4.59104944 13.4537912,4.50360547 12.5622264,4.26459194 Z M16.020589,2.813022 C14.8166926,2.4923941 13.3970036,0.994187368 14.3112833,1.00001697 C15.0211279,1.00584656 16.1909516,1.80450151 16.5657496,2.53903088 C16.7701848,2.94127316 16.6793247,2.98790994 16.020589,2.813022 Z M18.3148065,2.81885159 C18.3148065,2.25921017 19.9218945,1.00001697 20.6374178,1.00001697 C21.1541846,1.00001697 21.1428271,1.12243853 20.5749514,1.75786473 C19.8423919,2.56817887 18.3148065,3.29104905 18.3148065,2.81885159 Z M11.7695312,22.6015625 L10,22.6015625 L10,17.1347656 C10,15.2714844 11.3769531,14 13.5449219,14 C15.7070312,14 17.0839844,15.2714844 17.0839844,17.1347656 L17.0839844,22.6015625 L15.3144531,22.6015625 L15.3144531,17.3105469 C15.3144531,16.2265625 14.6757812,15.5175781 13.5449219,15.5175781 C12.4082031,15.5175781 11.7695312,16.2265625 11.7695312,17.3105469 L11.7695312,22.6015625 Z M18,14 L19.9101562,14 L21.7734375,16.9589844 L21.8203125,16.9589844 L23.671875,14 L25.6875,14 L22.9570312,18.2070313 L22.9570312,18.2480469 L25.7226562,22.4550781 L23.7480469,22.4550781 L21.9375,19.4082031 L21.890625,19.4082031 L20.0976562,22.4550781 L18.0175781,22.4550781 L20.6835938,18.2832031 L20.6835938,18.2363281 L18,14 Z" transform="matrix(1 0 0 -1 -.966 30.933)"/>
</svg>
