<?xml version="1.0" encoding="utf-8"?>
<!-- Generator: Adobe Illustrator 19.2.1, SVG Export Plug-In . SVG Version: 6.00 Build 0)  -->
<svg version="1.1" id="Layer_1" xmlns="http://www.w3.org/2000/svg" xmlns:xlink="http://www.w3.org/1999/xlink" x="0px" y="0px"
	 viewBox="0 0 600 600" style="enable-background:new 0 0 600 600;" xml:space="preserve">
<style type="text/css">
	
	.st0 {
		fill: none;
	    stroke: #00FDCB;
	    stroke-width: 5;
	    animation-duration: 3s;
	    stroke-dasharray: 50px;
	    stroke-dashoffset: 100px;
	    animation-name: draw;
	    animation-iteration-count: infinite;
	    animation-timing-function: linear;
	}

	.st1 {
		fill:#00FDCB;
	}

  	.st2 {
		fill: none;
	    stroke: #00FDCB;
	    stroke-width: 5;
	    animation-duration: 1s;
	    stroke-dasharray: 50px;
	    stroke-dashoffset: 100px;
	    animation-name: draw;
	    animation-iteration-count: infinite;
	    animation-timing-function: linear;
	}
  
	.h1 {font-family: "Apercu-pro";}

@keyframes draw {
  100% {
    stroke-dashoffset: 0;
  }
}
</style>
<g id="bottom">
	<path class="st2" d="M232.8,321.9c6.9,0,10.3,4.8,13.2,9c3,4.3,5.1,6.9,9.2,6.9c4.1,0,6.2-2.6,9.2-6.9c3-4.2,6.3-9,13.2-9
		s10.3,4.8,13.2,9c3,4.3,5.1,6.9,9.2,6.9c4.1,0,6.2-2.6,9.2-6.9c3-4.2,6.3-9,13.2-9c6.9,0,10.3,4.8,13.2,9c3,4.3,5.1,6.9,9.2,6.9
		s6.2-2.6,9.2-6.9c3-4.2,6.3-9,13.2-9"/>
</g>
<g id="middle">
	<path class="st1" d="M344.8,310.4c-6.9,0-10.3-4.8-13.2-9c-3-4.3-5.1-6.9-9.2-6.9c-4.1,0-6.2,2.6-9.2,6.9c-3,4.2-6.3,9-13.2,9
		c-6.9,0-10.3-4.8-13.2-9c-3-4.3-5.1-6.9-9.2-6.9c-4.1,0-6.2,2.6-9.2,6.9c-3,4.2-6.3,9-13.2,9c-6.9,0-10.3-4.8-13.2-9
		c-3-4.3-5.1-6.9-9.2-6.9v-5c6.9,0,10.3,4.8,13.2,9c3,4.3,5.1,6.9,9.2,6.9c4.1,0,6.2-2.6,9.2-6.9c3-4.2,6.3-9,13.2-9
		s10.3,4.8,13.2,9c3,4.3,5.1,6.9,9.2,6.9c4.1,0,6.2-2.6,9.2-6.9c3-4.2,6.3-9,13.2-9c6.9,0,10.3,4.8,13.2,9c3,4.3,5.1,6.9,9.2,6.9
		s6.2-2.6,9.2-6.9c3-4.2,6.3-9,13.2-9v5c-4.1,0-6.2,2.6-9.2,6.9C355.1,305.7,351.7,310.4,344.8,310.4z"/>
</g>
<g id="top">
	<path class="st0" d="M232.8,262.2c6.9,0,10.3,4.8,13.2,9c3,4.3,5.1,6.9,9.2,6.9c4.1,0,6.2-2.6,9.2-6.9c3-4.2,6.3-9,13.2-9
		s10.3,4.8,13.2,9c3,4.3,5.1,6.9,9.2,6.9c4.1,0,6.2-2.6,9.2-6.9c3-4.2,6.3-9,13.2-9c6.9,0,10.3,4.8,13.2,9c3,4.3,5.1,6.9,9.2,6.9
		s6.2-2.6,9.2-6.9c3-4.2,6.3-9,13.2-9"/>
</g>
</svg>